<?xml version="1.0" encoding="UTF-8" standalone="no"?>
<svg
   xmlns:dc="http://purl.org/dc/elements/1.1/"
   xmlns:cc="http://creativecommons.org/ns#"
   xmlns:rdf="http://www.w3.org/1999/02/22-rdf-syntax-ns#"
   xmlns:svg="http://www.w3.org/2000/svg"
   xmlns="http://www.w3.org/2000/svg"
   xmlns:sodipodi="http://sodipodi.sourceforge.net/DTD/sodipodi-0.dtd"
   xmlns:inkscape="http://www.inkscape.org/namespaces/inkscape"
   inkscape:version="1.0 (4035a4fb49, 2020-05-01)"
   sodipodi:docname="radar.svg"
   id="svg18"
   xml:space="preserve"
   enable-background="new 0 0 100 100"
   viewBox="0 0 100 125"
   y="0px"
   x="0px"
   version="1.1"><metadata
     id="metadata24"><rdf:RDF><cc:Work
         rdf:about=""><dc:format>image/svg+xml</dc:format><dc:type
           rdf:resource="http://purl.org/dc/dcmitype/StillImage" /></cc:Work></rdf:RDF></metadata><defs
     id="defs22" /><sodipodi:namedview
     inkscape:current-layer="svg18"
     inkscape:window-maximized="0"
     inkscape:window-y="0"
     inkscape:window-x="960"
     inkscape:cy="62.5"
     inkscape:cx="50"
     inkscape:zoom="6.832"
     showgrid="false"
     id="namedview20"
     inkscape:window-height="1027"
     inkscape:window-width="956"
     inkscape:pageshadow="2"
     inkscape:pageopacity="0"
     guidetolerance="10"
     gridtolerance="10"
     objecttolerance="10"
     borderopacity="1"
     bordercolor="#666666"
     pagecolor="#ffffff" /><g
     id="g12"><path
       id="path2"
       d="M49.999,4.5C24.911,4.5,4.5,24.912,4.5,50c0,25.088,20.411,45.5,45.499,45.5C75.088,95.5,95.5,75.088,95.5,50   C95.5,24.912,75.088,4.5,49.999,4.5z M93.316,48.922H80.648c-0.361-10.16-5.777-19.543-14.394-24.934l6.329-10.968   C84.738,20.47,92.944,33.74,93.316,48.922z M48.922,48.922H36.314c0.524-6.715,5.891-12.093,12.607-12.616V48.922z M48.922,51.078   v2.945v9.658c-6.715-0.525-12.08-5.891-12.604-12.604H48.922z M51.077,51.078h12.604c-0.524,6.713-5.891,12.078-12.604,12.604   V51.078z M51.865,48.922l5.905-10.231c3.408,2.347,5.589,6.125,5.917,10.231H51.865z M64.407,22.878L64.407,22.878l-7.404,12.829   l0,0l-5.926,10.27V34.107V19.314V6.683c7.098,0.174,13.78,2.052,19.644,5.256L64.407,22.878z M48.922,34.148   c-7.906,0.533-14.242,6.868-14.773,14.773H21.496c0.557-14.876,12.551-26.876,27.426-27.433V34.148z M34.148,51.078   c0.531,7.902,6.867,14.24,14.773,14.773v12.65c-14.875-0.557-26.869-12.549-27.425-27.424H34.148z M51.077,65.852   c7.904-0.533,14.241-6.871,14.773-14.773h12.65c-0.556,14.875-12.549,26.867-27.424,27.424V65.852z M65.854,48.922   c-0.337-4.874-2.934-9.364-7.004-12.103l6.335-10.978c7.953,5.005,12.951,13.688,13.309,23.081H65.854z M48.922,6.683v12.659   c-16.064,0.558-29.021,13.517-29.58,29.58H6.682C7.249,25.878,25.878,7.249,48.922,6.683z M6.682,51.078h12.66   c0.559,16.063,13.516,29.02,29.58,29.58v12.658C25.878,92.75,7.249,74.121,6.682,51.078z M51.077,93.316V80.658   c16.063-0.561,29.021-13.518,29.581-29.58h12.658C92.749,74.121,74.12,92.75,51.077,93.316z" /><circle
       id="circle4"
       r="2.994"
       cy="15.915"
       cx="32.191" /><circle
       id="circle6"
       r="2.994"
       cy="42.918"
       cx="72.211" /><circle
       id="circle8"
       r="2.993"
       cy="74.046"
       cx="55.359" /><circle
       id="circle10"
       r="2.992"
       cy="72.211"
       cx="23.385" /></g></svg>
